<?xml version="1.0" encoding="UTF-8"?>
<svg version="1.1" viewBox="0 0 1024 1024" width="1024" height="1024" xmlns="http://www.w3.org/2000/svg">
<path transform="translate(0)" d="m0 0h1024v1024h-1024z" fill="#FBFBFA"/>
<path transform="translate(775,180)" d="m0 0h31v9l-4 24-5 21-6 18-11 21-10 14-13 13-3 1v2l-13 8-16 8-19 6-22 4-20 3-14 5-13 7-11 7-3 3 9 5 11 9 6 7 3 6 1 6-1 71 15-8h3v-2h-2v-2l-4-2-4-7 1-10 6-19 13-40 5-6 3-1h23l21 3 32 8 26 9 19 8 16 8 12 7 4 3v2l4 2 2 3v10l-17 51-3 10-6 5-6 2-13 1 7 13 4 17v18l-3 14-19 57-7 19 16-2 15-5 12-8 6-7 7-12 2-7 1-16-2-12-2-6v-8l3-3 7 1 4 8 3 11 1 17-3 16-5 12-9 12-4 4h-2v2l-7 5-13 6-14 4-6 1h-15l-3 11-8 23-7 11-11 10-11 5-6 2-7 1h-11l-13-2-22-7-32-10-36-12-11-7-5-4-4 2-9 7-16 11-16 9-26 11-20 6-20 4-17 2h-35l-27-4-19-5-24-9-17-9-11-7-14-10-5-5-8-7-7-8-1-3h-2l-14-19-7-12-9-20-8-24-5-24-3-29v-136l2-7 4-7 7-7-4-8h-2l-7-9-8-9v-2h-2l-7-9-6-7v-2h-2l-2-5h-2l-7-9-10-13-4-8-1-4v-13l3-9 7-9 9-8 11-6 4-1h16l9 3 6 4 5 5 7 6 20 20 2 1v2l4 2 20 20 7 6 5 6 8 7 24 24 8 7 10 10 8 7 22 22 16 15 17 17 12 11 9 9h20l33-3 28-4 2-9 7-19 8-16 9-14 10-12-2-2-18-6 2-4 5-4 5-5 4-1 20 6 5-2 13-10 14-8 1-3v-27l3-18 4-15 8-16 10-16 11-12h2v-2l4-3h2v-2l16-10 13-7 17-6 22-5z" fill="#1E3D54"/>
<path transform="translate(271,420)" d="m0 0 7 5 12 6 12 5 14 5 19 5 31 6 33 4 36 2h35l35-2 32-4 31-6 26-7 21-8 14-7 5-2v51l-9 14-7 21-8 26-12 36-4 11-5-2-9-7-9-12-5-12-2-9v-13l3-12 6-10 9-9 10-6 1-5-1-4h-8l-11 7-9 9-6 10-4 11-1 5v23l5 16 8 13 7 8 12 9 4 2-1 9-4 14-1 6v13l2 9-1 5-16 13-19 12-23 11-21 7-19 4-17 2h-35l-22-3-20-5-20-8-21-11-11-8-8-6v-2l-4-2-16-16-11-15-11-19-8-20-6-21-4-24-1-10z" fill="#B1BEC7"/>
<path transform="translate(395,183)" d="m0 0h22l12 3 14 7 11 9 8 11 6 12 4 12 2 10v9h2l1-9 4-15 8-15 11-12 11-8 11-5 13-3 9-1h11l16 3 10 4 9 7 7 7 9 14 5 11 3 11v15l-3 14-8 16-6 9-9 10-6 6h-2v2l-8 7-9 9-8 7-4 2v2l-6 5h-2v2l-11 9-16 15-11 9-14 13-11 9-4 4-5-2-7-7-8-7-13-12-8-7-10-9-13-12-8-7-11-10-8-7-16-15-11-12-11-17-5-12-4-16v-20l5-15 6-11 9-10 8-7 10-6 15-5z" fill="#89AC4A"/>
<path transform="translate(680,456)" d="m0 0 5 2 16 9 17 7 10 4 14 5 34 7 13 2 8 13 5 15 1 8v10l-3 14-16 48-13 38-11 33-7 11-3 3h-2v2l-10 6-8 3-13 1-15-3-40-13-42-13-11-6-6-5-4-5-6-14-1-5v-11l8-27 16-49 12-38 5-15 6-10 5-5 9-8 15-9z" fill="#F9F9F8"/>
<path transform="translate(271,420)" d="m0 0 7 5 12 6 12 5 14 5 19 5 31 6 33 4 36 2h35l35-2 32-4 31-6 26-7 21-8 14-7 5-2v4h-2v2h-2l-2 4-10 9-11 7-16 8-30 10-25 6-32 5-19 2-16 1h-38l-31-2-29-4-29-6-24-7-16-6v44l4 31 6 24 8 22 11 23 10 16 13 17 9 10 9 9 11 9 13 9 14 8 20 9 18 5 11 2 22 2-2 2-10 1h-35l-22-3-20-5-20-8-21-11-11-8-8-6v-2l-4-2-16-16-11-15-11-19-8-20-6-21-4-24-1-10z" fill="#F9FAF9"/>
<path transform="translate(241,252)" d="m0 0 8 1 8 6 13 12 22 22 5 4 35 35 15 14 13 13 2 1v2l4 2 3 3v2l4 2 16 16 7 6v2l4 2 14 14 3 2v2l4 2 21 21v1h-26l-34-3-30-5-8-3-13-16-9-11-11-13-9-11-11-13-9-11-11-12-3-4v-2l-3-1-3-4v-2l-3-1-9-11v-2h-2l-8-10v-2h-2l-7-9v-2h-2l-8-11-2-5 2-9 7-8 9-5z" fill="#B1BEC7"/>
<path transform="translate(772,195)" d="m0 0h17l-2 14-6 24-7 19-9 16-9 11-11 11-14 9-10 5-15 5-19 4-23 3-10 3-3-1 9-16 12-17 12-13 13-13 11-8 9-6 10-6 19-10 12-5-11 1-17 5-21 9-15 9-12 9-10 9-7 7-11 15-1-3 6-21 8-16 7-10h2l2-4 7-7h2v-2l13-9 16-8 17-6 18-4z" fill="#89AC4A"/>
<path transform="translate(617,588)" d="m0 0 24 10 31 10 25 6 28 4 38 1-8 26-7 21-5 8-7 6-9 4h-15l-56-18-33-10-8-5-6-7-3-7-1-11 5-17z" fill="#89AC4A"/>
<path transform="translate(688,376)" d="m0 0 4 2 11 7-2 10-12 36-2 9 3 1 14-41 4-11 6 2 10 5-1 7-12 38-2 6v4h3l12-36 5-16 6 1 12 5-13 42-3 9v4h3l12-36 5-17 16 4 2 1-2 10-12 38-1 7h3l11-33 6-20 7 1 11 3-1 8-14 44 1 3 3-1 16-50 1-2 11 1 7 2-6 20-9 29v3l4-2 16-49h15l-3 12-14 42-3 3-7 1h-14l-26-3-25-6-27-10-16-8-16-9-11-9-3-3 1-9z" fill="#89AC4B"/>
<path transform="translate(725,753)" d="m0 0h9l7 4 8 11 5 9 8 11 2 1 2-5 16-24 5-5 3-2h11l6 4 3 5 1 5v65l-3 6-6 4h-8l-6-4-2-2-1-4-1-33-6 10-8 11-3 2h-10l-5-5-6-9-5-9-1 8-1 27-4 6-4 2h-8l-5-3-4-5-1-4v-34l1-32 5-8z" fill="#1E3D54"/>
<path transform="translate(406,753)" d="m0 0h10l5 3 7 9 7 11 8 12 4-4 10-15 7-10 5-5 3-1h10l6 4 3 4 1 3v70l-3 5-6 3h-7l-6-3-3-5-1-10-1-24-7 11-6 8-4 3h-9l-7-6-6-10-4-8-1 34-3 6-6 4h-7l-6-3-3-4-1-3v-64l3-9 5-5z" fill="#1E3D54"/>
<path transform="translate(627,753)" d="m0 0h8l6 4 3 5 1 47 3 6 1 3 6 1h9l6-2 3-9v-42l3-8 5-4 2-1h8l6 4 3 5v51l-3 10-3 6-9 8-10 4-15 2-13-1-8-2-8-4-6-5-5-9-2-6-1-11v-41l2-5 5-5z" fill="#1F3E55"/>
<path transform="translate(307,753)" d="m0 0h9l5 3 4 4 1 44 2 10 1 3 7 2h10l5-3 3-6 1-48 3-5 5-4h9l6 3 3 6 1 5v41l-4 16-5 8-6 5-11 4-4 1h-24l-15-5-6-5-5-8-3-11v-52l5-6z" fill="#1F3E54"/>
<path transform="translate(221,753)" d="m0 0h9l5 3 6 8 10 15v2h2l2-5 12-18 6-5h9l6 4 3 4v9l-7 11-11 15h-2l-2 4-4 6-1 27-3 5-3 3-3 1h-7l-7-4-3-8-1-26-6-8-8-11-7-10-3-6v-7l2-5z" fill="#1E3D54"/>
<path transform="translate(540,753)" d="m0 0h9l6 4 9 13 6 9v2h2l2-5 7-11 8-10 3-2h9l6 4 3 5v8l-4 7-5 7h-2l-2 4-9 13h-2l-2 5-1 27-4 7-4 2h-9l-6-4-3-7-1-27-6-8-12-17-6-9v-8l3-5z" fill="#1E3D54"/>
<path transform="translate(241,252)" d="m0 0 8 1 8 6 13 12 22 22 5 4 35 35 15 14 13 13 2 1v2l4 2 3 3v2l4 2 16 16 7 6v2l4 2 14 14 3 2v2l4 2 21 21-3 1-11-9-32-30-8-7-7-7-8-7-5-4-14-14-2-1v-2l-4-2-9-9-8-7-7-7-16-14v-2l-4-2-10-10-8-7-7-7-8-7-12-11-11-8-4-1-2 2v14l6 16 11 20 14 21 10 14-1 2-11-12-3-4v-2l-3-1-3-4v-2l-3-1-9-11v-2h-2l-8-10v-2h-2l-7-9v-2h-2l-8-11-2-5 2-9 7-8 9-5z" fill="#F6F7F6"/>
<path transform="translate(605,367)" d="m0 0 5 1 12 7 8 7 2 4v10l-7 8-10 7-20 9-23 7h-2l3-11 7-16 9-14 9-12h2l2-4z" fill="#F7F8F7"/>
<path transform="translate(538,196)" d="m0 0h19l13 3 12 6 5 5 5 6 6 12 3 13v18l-3 12-3 7h-1l-1-18-3-13-6-12-11-12-10-7-11-5-8-2h-21l-13 4-10 5-4 4-2-1 10-10 10-7 11-5z" fill="#FBFBFA"/>
<path transform="translate(697,371)" d="m0 0 25 2 31 7 26 8 18 7 23 11 11 7 1 2h-10l-26-5-27-7-33-11-25-11-14-9z" fill="#89AC4C"/>
<path transform="translate(400,198)" d="m0 0h20l10 3 9 4v2l5 2 5 5-16-4-6-1h-14l-17 4-6 2v2h-3v2l-3 1-5 5-8 10-6 12-3 10-1 7v12l3 17 2 6v5l-1-2h-2l-6-15-3-12-1-7v-16l4-16 6-12 3-5 5-5 10-8 6-4z" fill="#F4F5F5"/>
<path transform="translate(660,528)" d="m0 0 9 1 6 4 3 5v12l-4 7-6 4-7 1-6-2-5-3-4-10 1-8 4-7 5-3z" fill="#254359"/>
<path transform="translate(741,556)" d="m0 0h7l8 4 4 7 1 7-3 8-6 5-6 2-8-1-6-4-4-7v-9l4-7 6-4z" fill="#234258"/>
<path transform="translate(772,195)" d="m0 0h14v1l-31 6-21 6-18 7-16 9-11 9-10 9-9 10-5 6-5 9-1-3 8-16 7-10h2l2-4 7-7h2v-2l13-9 16-8 17-6 18-4z" fill="#E9ECED"/>
<path transform="translate(731,237)" d="m0 0 2 1-12 8-14 12-10 9-11 12-13 18-8 13-4 7-10 2 6-12 10-15 7-9 9-10 14-14 11-8 9-6 10-6z" fill="#EDF0F1"/>
<path transform="translate(278,379)" d="m0 0 5 5 2 4h2l4 5v2l3 1 3 4v2h2l4 5v2l3 1 7 8v3l-12-5-16-9-11-10-1-3v-9z" fill="#F2F3F3"/>
<path transform="translate(676,573)" d="m0 0h4l1 3-1 9 3 9 5 3h12l6-4 4-6 5 1-1 5-6 7-6 3-10 1-9-2-6-5-3-9v-8z" fill="#1E3D54"/>
<path transform="translate(688,376)" d="m0 0 3 1-1 8-12 38-4 13-3-2 1-9z" fill="#E3E7E7"/>
<path transform="translate(665,533)" d="m0 0h6l3 3v6l-4 4-6-1-2-3v-6z" fill="#F3F5F3"/>
<path transform="translate(748,560)" d="m0 0 5 1 3 3v5l-4 4-6-1-3-4 2-6z" fill="#EFF1F0"/>
<path transform="translate(755,533)" d="m0 0 8 1 6 7 1 3v7l-3-4-5-6-10-2-1-3z" fill="#1E3D55"/>
<path transform="translate(668,503)" d="m0 0 8 2 2 2-1 5-7-2h-9l-6 3-2-1 8-7z" fill="#1E3D55"/>
<path transform="translate(772,195)" d="m0 0h14v1l-17 3h-3v-2l-2-1z" fill="#CBD4D4"/>
<path transform="translate(731,237)" d="m0 0 2 1-12 8-4 2v-3l10-6z" fill="#D0D8DD"/>
</svg>
