<?xml version="1.0" encoding="UTF-8"?>
<svg version="1.1" viewBox="0 0 1080 1080" width="1080" height="1080" xmlns="http://www.w3.org/2000/svg">
<path transform="translate(0)" d="m0 0h1080v1080h-1080z" fill="#FCFCFC"/>
<path transform="translate(520,401)" d="m0 0h86l29 3 32 5 31 7 24 7 20 7 21 8 38 19 20 12 19 13 14 11 12 9v2h2v2l4 2 12 11v2l4 2v2l3 1v2l3 1 7 8 1 3h2v2h2l18 24 14 20 14 24 8 16 5 11 8 20 9 27 7 28 5 32 2 28v20l-1 18-5 27-6 20-8 20-7 13h-27v14l-1 2h-23l-2 6-5 7 4 1v5h-55l1-6h4l2-13h-67l-349-1v-17h-57l4 35v7l-12 1-99 1-11-10-10-3-1-3 1-3h-69l-9-8-4-4-12-3 1-11h-16l-1-4h-2l-10-24-5-15-4-18-3-18v-55l5-37 6-26 6-21 4-12 11-27 9-19 9-16 12-19 11-16h2l2-5 11-13 9-10 1-2h2l2-4 14-14h2v-2h2v-2l5-4h2l1-3 11-9 16-12 12-8h2v-2l9-5 20-12 19-9 15-7 24-9 24-8 32-8 20-4 36-5z" fill="#C4E8F5"/>
<path transform="translate(543,460)" d="m0 0h17l14 5 13 9 8 8 7 11 7 19 9 30 6 14 3 10v10l-3 8-8 8-5 4-4 6h-2l-1-3-7 3-1 4-6-3v-2h-2l-1 4-10 4h-2l1 11 9 8 3 4 30 11 16 7 8 5 7 10 5 11 8 29 21 96v4h28v44h106v-45l-10 1-60 2h-27l-1-1v-22l1-98 1-21 10-1 186 11 6 2v123l-1 1-45 2h-18v46h60l1 1v21h22v16h27v3h-27v14l-1 2h-23l-2 6-5 7 4 1v5h-55l1-6h4l2-13h-67l-349-1v-17h-57l4 35v7l-12 1-99 1-11-10-10-3-1-3 1-3h-69l-9-8-4-4-12-3 1-11h-16l-1-3h18l2-14 15-82 5-26 3-16 1-1h17l1-10 4-10 4-6 7-6 11-4 16-3h13l9 4 7 8 4 9 2 8v10l18 3 2 2 1 15 7-3 15-3h10l8 3 5 4 5 10 2 7v9l9 1 7 2 3 23 6 56v11h58v-33l-4 2h-9l-8-4-11-11-7-10-8-14-4-8-4-5-5-11-2-5v-10l1-4-8-16-5-4-20-5-6-4-5-8-2-6-6-4-1-2v-8l-5-2-3-7v-3l-8-5-2-3v-6l4-1-6-7-4 1-6 2-5-2-19-2v-5l5-5 9-6 9-3 12-2h13l13 4 10 9 12 20 3 4v2l5 1 9 4 7 7 9 11 6 10 1 2 19 5 4-18 4-17 8-23 6-12 8-11 9-6 20-8 18-7 4-2 5-8 6-6 1-3v-7l-11-3-4-4-4 2-5 2h-5v-5l-4-1-5-5-1 4-2-1-3-7-8-11-1-3v-11l4-10 10-21 5-18 4-17 6-15 9-11 7-5 6-2h20l1-4z" fill="#8B8B8A"/>
<path transform="translate(730,668)" d="m0 0 26 1 164 10v118l-5 1-56 2-1-29-3-7-5-4-10-1-9 2-5 2-2 5-2 3-1 29-1 1-91 3v-134z" fill="#B4B2B2"/>
<path transform="translate(587,635)" d="m0 0 6 2 31 12 12 6 7 6 8 16 7 24 4 19 4 16 10 48 4 17v4h-45l-4-21-2-9v-12l1-8v-21l-1-14v-14l4-8 3-7-3 3-6 12 1 25v26l-6 43-1 5h-40l-2-10-5-7-6-4-1-2-13-1-4-4-2-17-1-16v-36l2-55 5-5h6l6 5 5 10 3 1 10-21z" fill="#FCFCFC"/>
<path transform="translate(543,460)" d="m0 0h17l14 5 13 9 8 8 7 11 7 19 9 30 6 14 3 10v10l-3 8-8 8-5 4-4 6h-2l-1-3-9 3-4-3-1-5 1-7-2 3-2 9-5 5-2 1h-6l3-7 4-7 5-13 2-6 6-3h2l2-4 3-2 6 8 1 3v10h2v-9l-3-8-7-8-14-13-3-2v-2l-3-1-7-10-8-18-7-10-6-3-7 1-3 1-2 5-1 3h2l2-4 5-4 6 1 5 5 6 9 6 14v2h-9l-5 1v2l4-1h8l5 2 8 9 8 7 1 3-1 3h2v-2l4 1 2 4-4 5-5 2v-6h-2l-2 12-4 12-5 10-7 7-13 8-6 2h-9l-14-7-11-10-8-16-3-13v-6l-2-1 10-14 3-4h2l1-5h3v-2l3-1h13l-5-2h-11l3-7 2-7h2l2-6 3-3-8 3-6 7-7 16-4 8-7 9-2 1 4-16 6-18 2-3v-3l-7 14-5 16-7 2-3 5v10l-6 1v2l9-1 5 5 6 3 4 15 6 11 4 5 1 4-8-1-6-4-3-5v-12l-2 1v14l-3 3-3 1v-12l-1-4-2-1 1 5v10l-3 1-4-1-5-5-1 4-2-1-3-7-8-11-1-3v-11l4-10 10-21 5-18 4-17 6-15 9-11 7-5 6-2h20l1-4z" fill="#E6B78F"/>
<path transform="translate(216,751)" d="m0 0h20l2 1v10l-2 12h2l2-22 7-1 46 1-1 15h2l1-15h17l1 6v11l-6 8-2 6-1 8-1 1-14 1-5 26-2 4-5 2v1l5-1-1 10-4 2-6-1v7h2l1-3 3 1v2h2l-2 14-9 49-2 4-65 1-1-4 10-101 5-51z" fill="#F5D896"/>
<path transform="translate(303,797)" d="m0 0h16l1 1-1 14-1 4 2-1 3-17h42v12h2l1-12h13l2 10 7 66 5 48v6l-78 1h-28l4-42 8-83z" fill="#FBC974"/>
<path transform="translate(507,637)" d="m0 0 5 5 8 12 3 9 3-4 5-7 2-1h7l6 4v33l-1 24v27l2 37-5 1-3-1-6-8-11-10-14-8-11-5-13-4-13-3-1-22-4-13-3-9-2 2 6 14 1 6v22l-20 1h-20l2-11 7-28 7-19 6-12 7-9 5-4 9-5 23-8z" fill="#FCFCFC"/>
<path transform="translate(360,1024)" d="m0 0h404v2l-18 5-27 6-38 6-35 4-27 2-35 1h-48l-40-2-42-4-34-5-25-5-30-7-5-2z" fill="#C4E8F6"/>
<path transform="translate(548,502)" d="m0 0 6 1 5 5 6 9 6 14v2h-9l-5 1v2l4-1h8l5 2 8 9 8 7 1 3-1 3h2v-2l4 1 2 4-4 5-5 2v-6h-2l-2 12-4 12-5 10-7 7-13 8-6 2h-9l-14-7-11-10-8-16-3-13v-6l-2-1 10-14 3-4h2l1-5h3v-2l3-1h13l-5-2h-11l3-7 2-7h2l2-6 4-1v-3l3-1v2h3l2-4z" fill="#FDE3CA"/>
<path transform="translate(711,853)" d="m0 0h206v17l-4 1h-202z" fill="#B4B3B2"/>
<path transform="translate(202,749)" d="m0 0 11 2-1 19-11 111-3 28-5-3-7-7-11-3 1-10 16-87 9-49z" fill="#F6D795"/>
<path transform="translate(111,276)" d="m0 0h14l2 6 4 32 3-12 2-11 3-15h14l7 38 2-7 5-31h14l-1 9-4 21-4 24-2 8h-18l-5-28-2-9-7 37h-17l-6-34-4-25z" fill="#40662D"/>
<path transform="translate(837,762)" d="m0 0h9l5 2 4 5 1 3v77h-32v-76l4-7 5-3z" fill="#B4B3B2"/>
<path transform="translate(400,290)" d="m0 0h8l7 3 3 2 6-4 5-1h7l6 4v2h2l2 6v36h-16l-1-35h-7l-2 5-1 30h-16l-1-35h-7l-2 4-1 31h-16v-47h16l1 4 5-4z" fill="#40662D"/>
<path transform="translate(1e3 291)" d="m0 0h16v5l5-4 3-1h11l8 6 4 9v17l-4 8-7 6-2 1h-11l-7-3v20h-16z" fill="#40662D"/>
<path transform="translate(429,772)" d="m0 0 4 5 7 10 8 13 3 4v44l-5 3-9-1-9-6-8-8-12-20-2-4v-4l8-3 6-7 6-13z" fill="#FCFCFC"/>
<path transform="translate(427,743)" d="m0 0h27l14 3 2 18v8l-5 30-1 3h-10l-6-9-10-16-7-9-7-10 2-16z" fill="#FCFCFC"/>
<path transform="translate(290,796)" d="m0 0 9 1v11l-11 112-1 7-6-4-4-4-9-3 5-28 10-54z" fill="#FBC874"/>
<path transform="translate(320,662)" d="m0 0h10l10 3 9 6 10 15 5 9-4-1-9-5h-4l-1 5 5 8 15 10 5 8 5 6 18 7 10 3 1 5h-13l-18-3-13-4-2-1v-2l5-3v-6l-3-1-2-5-5-2-2-5-5-3-10-3-14-20v-2l-3-1-5-5-10-5-9-1 2-2 14-4z" fill="#FCFBF9"/>
<path transform="translate(206,290)" d="m0 0h10l7 3 5 5 3 5 2 6v8l-29 1 1 9h10l1-4h16l-2 6-5 5-4 3-9 2-11-1-6-3-6-8-2-4v-15l4-9 4-5z" fill="#41662E"/>
<path transform="translate(472,290)" d="m0 0h13l8 4 4 3 3 7 1 5v8h-29l2 9 1 1h6l4-4h15l-1 5-7 8-12 3-10-1-6-3-6-6-3-11 1-12 4-8 6-5z" fill="#41662E"/>
<path transform="translate(732,291)" d="m0 0h18l1 34 8 1 1-4v-31h16v47h-15l-1-4-3 3-11 2-6-2-2-1v-2h-2l-3-5z" fill="#40662D"/>
<path transform="translate(855,696)" d="m0 0 4 1-3 8-3 3-9 4 3 4 1 1v-5l8 1 6 3-1 6-2 3-1 8-1 2h3l1-7 2 1v5l-3 3h-4l-2 5-5 1-10-3-5 3h-13l-6-4-4-5-1-4v-18l-4-5-1-4 3-2 4 1 11 10v2l4 2 2 2h7l2-6v-2h4l3-9 3-3z" fill="#888C86"/>
<path transform="translate(363,830)" d="m0 0h5l-1 7-5 5-9 2 3 4 1-2h5v2l8 1 1 5-1 3h-2l1 5-1 6 2-1 1-5h1v6l-2 2-4 1-3 5-8-1-7-1-7 3h-8l-8-4-5-8-1-21-4-5 2-4 5 1 10 9 6 6 8 1 2-8 4-1 3-9 4-3z" fill="#B4B5B6"/>
<path transform="translate(854,290)" d="m0 0h13l8 4 5 6 1 4h-16v-3h-9l1 4 4 2 8 2 8 4 4 4v12l-6 7-5 2-13 1-9-2-4-2-4-5-1-7h15l2 5h8l1-5-17-6-6-4-2-8 2-7 7-6z" fill="#41662E"/>
<path transform="translate(270,786)" d="m0 0h9l-2 8-3 1-1 2-3 2-5 1 2 4 4 1-3-3h8l7 4-1 3-2 4-2 2-1-2-7-2-5 1-3 10-1 4 1 2-8 4h-12l-6-4-4-5-1-3-1-20-4-5 1-4 4-1 8 7 10 10h7l3-8 4-1 3-8z" fill="#B3B4B4"/>
<path transform="translate(471,747)" d="m0 0 16 8 11 7 7 6 5 6 1 5-1 2-13 1-9 10-2 5-1 8h-9l-2-26-3-20z" fill="#FCFCFB"/>
<path transform="translate(356,723)" d="m0 0 6 1-1 4-6 2h-4v3l3-1 16 7 14 3 23 2 6 9-1 10-5 12-7 9-3-3-5-13-8-14-5-4-8-3-14-3-5-5-5-9v-4z" fill="#FCE1C8"/>
<path transform="translate(685,276)" d="m0 0h8v12l-6 3-3 5-1 3v15l4 10 6 3v12l-9-1-7-3-5-4-5-9-2-6v-19l3-7 6-8 9-5z" fill="#40662E"/>
<path transform="translate(695,276)" d="m0 0h7l10 5 6 6v2h2l3 7 1 13-1 9-2 6h-2l-2 5-7 6-6 3-9 1v-12l8-5 3-10v-8l-2-9-4-5-5-2z" fill="#42672F"/>
<path transform="translate(890,273)" d="m0 0h16l1 1v64h-16z" fill="#40662D"/>
<path transform="translate(243,274)" d="m0 0h16v64h-16z" fill="#40662D"/>
<path transform="translate(815,290)" d="m0 0h3v15l-10 2-3 10-1 21h-16v-47h16v7h2l2-5z" fill="#40662D"/>
<path transform="translate(570,611)" d="m0 0 2 1 2 16-7 6-9 6-8 7-3 5-5-5-14-11-8-6-1-5 3-11 5 3v2l4 2 11 6h8l8-4 11-10z" fill="#FDE3CA"/>
<path transform="translate(248,713)" d="m0 0h8l8 3 8 9 3 9v11h-34v-21l4-8z" fill="#C4E8F6"/>
<path transform="translate(916,290)" d="m0 0h7l7 3 3 5 1 2v38h-16l-1-34-5-1-3 1v-10l4-3z" fill="#40662D"/>
<path transform="translate(490,793)" d="m0 0h85l3 5v4h-90l1-7z" fill="#B4B3B2"/>
<path transform="translate(415,756)" d="m0 0 3 1 6 8 1 3h2l-1 9-4 13-6 10-5 4-2 1h-7l-5-8-3-6v-3l8-2 2-4 4-5 6-15z" fill="#FCFBF9"/>
<path transform="translate(556,292)" d="m0 0h16v46h-16z" fill="#40662D"/>
<path transform="translate(609,291)" d="m0 0h7v11l-5 1-1 5v14l6 6v10h-8l-7-4-5-5-3-12v-9l4-8 4-5z" fill="#41662E"/>
<path transform="translate(968,291)" d="m0 0h8l9 6 4 6 2 7v12l-6 11-8 5h-9v-10l5-3 2-5v-9l-3-7-4-2z" fill="#41662E"/>
<path transform="translate(344,291)" d="m0 0h8l9 6 4 6 2 7v12l-6 11-8 5h-9v-10l5-3 2-5v-9l-3-7-4-2z" fill="#41662E"/>
<path transform="translate(618,291)" d="m0 0h7l8 4 6 8 2 9-1 11-4 8-6 5-4 2-7 1-1-1v-10l5-4 2-6-1-10-3-5-3-1z" fill="#40662D"/>
<path transform="translate(958,291)" d="m0 0h8v11l-4 2-2 4v13l3 5 3 1v11h-8l-8-5-4-5-2-6v-15l3-7 1-2h2v-2z" fill="#40662D"/>
<path transform="translate(334,291)" d="m0 0h8v11l-4 2-2 4v13l3 5 3 1v11h-8l-8-5-4-5-2-6v-15l3-7 1-2h2v-2z" fill="#40662D"/>
<path transform="translate(285,291)" d="m0 0h6v11l-5 5v16l5 5v10l-9-1-8-5-4-7-1-4v-14l3-6 5-6 4-3z" fill="#40662D"/>
<path transform="translate(459,741)" d="m0 0h12l16 3 16 6 12 6 12 9 7 7 3 5h-23l-8-11-11-9-14-8-16-6-6-1z" fill="#FCFAF8"/>
<path transform="translate(363,830)" d="m0 0h5l-1 7-5 5-9 2 3 4 1-2h5v2l8 1 1 5-1 3-3 1-11-3-3 1v-4l-6 2h-20l-5-2 1 13 4 6 6 3h8l7-2 1-4 1 4 2 1-11 4h-8l-8-4-5-8-1-21-4-5 2-4 5 1 10 9 6 6 8 1 2-8 4-1 3-9 4-3z" fill="#939488"/>
<path transform="translate(482,710)" d="m0 0h44v15h-44z" fill="#FDFDFD"/>
<path transform="translate(348,691)" d="m0 0 5 1 15 8 13 5 13 14 7 10 1 4-11-3-13-5-6-7-5-8-13-8-6-7z" fill="#FBE0C6"/>
<path transform="translate(539,276)" d="m0 0h49v13h-49z" fill="#486A36"/>
<path transform="translate(330,765)" d="m0 0 10 2 2 1v2l4 2 4 7 1 4v8l-1 1h-27v-18l5-8z" fill="#C4E8F6"/>
<path transform="translate(543,460)" d="m0 0h17l14 5 13 9 8 8 7 11 7 19 9 30 6 14 3 10v10l-3 8-8 8-5 4-4 6h-2l1-6 8-8 5-4 4-8v-9l-4-13-8-21-8-27-6-14-7-9-4-5-10-7-10-5-7-2h-15l-6 4h-2l1-4z" fill="#8D8D8C"/>
<path transform="translate(270,786)" d="m0 0h9l-2 8-3 1-1 2-3 2-5 1 2 4 4 1-3-3h8l7 4-1 3-2 4-2 2-1-2-7-2-5 1-3 10-1 4 1 2-8 4h-12l-6-4-4-5-1-3-1-20-4-5 1-4 4-1 8 7 10 10h7l3-8 4-1 3-8zm-40 6-2 2 5 7h2l2 4 3 4-7-1v12l4 7 9 4 8-1 5-3 2-7 3-9-1-8-2-1-2 5 3-1v2l-19 2v-2l4-1-4-2v-2l-8-7z" fill="#848982"/>
<path transform="translate(812,718)" d="m0 0 8 2h15l8-2-1 8-2 4h-2v-5l1-1-2-1v7l2 2v6l-6 3-6 1-9-3-5-6-1-4z" fill="#B4B5B6"/>
<path transform="translate(516,468)" d="m0 0h14l2 1v3h-16l-10 6-7 8-6 12-4 16-5 19-6 15-8 16-1 4v9l5 9 5 6 1 7h-3l-3-7-8-11-1-3v-11l4-10 10-21 5-18 4-17 6-15 9-11 7-5z" fill="#8C8C8B"/>
<path transform="translate(261,709)" d="m0 0h9l8 3 5 3 6 10 3 12v8h-14l-2-16-5-10-7-6-5-2z" fill="#C4E8F6"/>
<path transform="translate(570,605)" d="m0 0h2v7l-7 6-10 8-5 2h-8l-11-6-4-3v-2l-4-2-2 4v-13l5 2 8 5 8 3h7l13-5z" fill="#E7B78F"/>
<path transform="translate(480,706)" d="m0 0h48l1 1v21l-1 1h-48l-1-1v-21zm2 4v15h44v-15z" fill="#9B9A9A"/>
<path transform="translate(848,712)" d="m0 0 8 1 6 3-1 6-2 3-1 8-1 2h3l1-7 2 1v5l-3 3h-4l-2 5-5 1-5-2v-2l-4-2 2-10 4-11 2 1z" fill="#ABABA9"/>
<path transform="translate(576,626)" d="m0 0 4 2 4 4-1 8-7 16-4 4-7-11-4-3-5-1v-2l6-4 10-6 3-3z" fill="#FCFBF9"/>
<path transform="translate(242,713)" d="m0 0v3l-3 7-2 22h-16v-9l4-10 9-10z" fill="#C4E8F6"/>
<path transform="translate(724,668)" d="m0 0h2v126l-1 10h-3l1-105z" fill="#B5B3B1"/>
<path transform="translate(498,638)" d="m0 0 2 1-4 4-21 8-7 3-9 5-6 7-5 9-7 16-6 20-1 5-4 2 3-15 8-23 6-12 8-11 9-6 20-8z" fill="#929191"/>
<path transform="translate(356,854)" d="m0 0 6 2 2 1 1-2v2l4 2-1 9 2-1 1-5h1v6l-2 2-4 1-3 5-8-1-3-1v-2h-2l-3-7-1-1v-6l2 1v5h2l1-6 1-2z" fill="#ADA7A1"/>
<path transform="translate(516,625)" d="m0 0h1l2 7 16 12 4 4-8 2-5 5-1 2h-2l-5-10-8-11 1-5z" fill="#FCFBF9"/>
<path transform="translate(339,763)" d="m0 0h11l7 4 6 9 2 9v7h-11l-2-14-6-10-7-4z" fill="#C4E8F6"/>
<path transform="translate(528,514)" d="m0 0 3 1-3 6-5 11h10l6 3v1h-17v2h-3l-1 5h-2l-2 4-8 11-2 3 1 2h-3l1 4-4-1-4-4 5-4 9-10 9-19 5-10z" fill="#E7B790"/>
<path transform="translate(1021,302)" d="m0 0 5 1 4 5v14l-4 5-8-1-2-5v-14l2-4z" fill="#F4F4F4"/>
<path transform="translate(242,786)" d="m0 0 6 1 3 2h2l1-2 7 3h1v5l-9 9-5 1-5-5-4-5-1-4 2-4z" fill="#B6B3B1"/>
<path transform="translate(266,810)" d="m0 0 6 1 6 2v2h2l-1 8h-2l-1 3h-2v4l-3 2-9-3-2-3 1-4 3-10z" fill="#E5C998"/>
<path transform="translate(317,835)" d="m0 0 5 1 10 9v3l3 4h-6v2l-7-2 1 13 4 6 6 3h8l7-2 1-4 1 4 2 1-11 4h-8l-8-4-5-8-1-21-4-5z" fill="#858A81"/>
<path transform="translate(333,830)" d="m0 0 5 2 2 2 2-2 6 2h3v5l-3 4h-2v2l-7 5-8-7-3-3v-7z" fill="#B2B0AD"/>
<path transform="translate(294,291)" d="m0 0h7l4 2v2l4 2 5 9v3h-16l-2-6-2-1z" fill="#466935"/>
<path transform="translate(808,701)" d="m0 0 4 1 11 10v2l4 2 2 2 4 2-1 1h-12l-7-2-1-1-1 8h-1v-14l-4-5-1-4z" fill="#7F857B"/>
<path transform="translate(891,906)" d="m0 0h20l-2 5-7 8h-17z" fill="#FCFAF8"/>
<path transform="translate(298,321)" d="m0 0h15v5l-6 8-6 4h-7v-11z" fill="#42672F"/>
<path transform="translate(280,825)" d="m0 0h2l-1 10-4 2-6-1 1 8h-5l2-2v-6l-2 3-1 2-2-5-6 1h-2l-4 1-2-4 8-5 4-1 7 2 4-2 2-2 1 2 1-2z" fill="#F2D5A1"/>
<path transform="translate(502,784)" d="m0 0 10 2h40l4-2h9l5 4v2l-75-1 3-4z" fill="#B5B3B1"/>
<path transform="translate(230,792)" d="m0 0 7 6 6 5v2l4 2-4 1v2l18-1-3 2-6 1h-10l-6-2v7l3 6v2l4 2 3 3-5-1-5-3-3-6v-12l7 1-5-6v-2h-2l-5-7z" fill="#F7E0C2"/>
<path transform="translate(569,536)" d="m0 0 5 1 8 9 8 7 1 3-1 3h2v-2l4 1 2 4-4 5-5 2v-6l-2-1-2-6-5-6v-2h-2v-2h-2l-3-5-2-4z" fill="#E7B890"/>
<path transform="translate(229,790)" d="m0 0m-2 1 3 1-1 2 4 5v2h2l5 6v2l-7-1 1 12 3 6 9 4 8-1 4-2 2-4 2 5-8 4h-12l-6-4-4-5-1-3-1-20-4-5z" fill="#8D8E8D"/>
<path transform="translate(261,706)" d="m0 0h12l9 4 7 8 4 9 2 11-4-1-3-12-5-8v-2l-5-2-8-3-9-1z" fill="#909090"/>
<path transform="translate(356,854)" d="m0 0 6 2 2 1 1-2v2h2v8l-2 2-4-4 2 5h-6l-1-1-5-1 1-7 1-3z" fill="#EEC47F"/>
<path transform="translate(843,714)" d="m0 0h2v8l-4 12 1 4 2 2h-5l-5 3h-13l-6-4-4-5-1-8 1-9h1l2 16 4 5 9 3 9-2 3-1-2-7-1-1 1-7 3 1-2 6 2-1 3-11-1-2z" fill="#727E6C"/>
<path transform="translate(379,611)" d="m0 0 2 3 3 6v2l3 1-5 7-2 6-2-1-5-10v-3l4-6z" fill="#FDFDFD"/>
<path transform="translate(911,884)" d="m0 0h15l2 2v7l-1 1h-5v-7l-4 1-2 6h-6l-1-1v-7z" fill="#FCF7F2"/>
<path transform="translate(848,712)" d="m0 0 8 1 6 3-1 6-2 3-1 8h-1v-9l-11-3v-5l2 1z" fill="#6F8066"/>
<path transform="translate(313,772)" d="m0 0h1l2 14v6h-10l1-11 5-8z" fill="#F3D294"/>
<path transform="translate(835,746)" d="m0 0 4 2v-2h5l2 3 1-3h4 2l2 2 3-2 1 1v7h-3-3-3-2-6l-1-4-2 4h-3l-2-7z" fill="#848683"/>
<path transform="translate(807,746)" d="m0 0 4 1 5-1 1 1v5h2v-6h6l2 2 4-2v8h-2v-2l-4 2h-10l-2-4-1 4h-3l-2-5z" fill="#838682"/>
<path transform="translate(291,672)" d="m0 0h14l8 4v2l-3 2-6-1-4-1-14-1z" fill="#FCF9F6"/>
<path transform="translate(883,884)" d="m0 0h16l1 1v9h-4v-8h-5l-2 8h-7v-9z" fill="#FBF8F4"/>
<path transform="translate(873,906)" d="m0 0h12l-6 13h-8z" fill="#FDFBF9"/>
<path transform="translate(627,781)" d="m0 0 2 3 3 14v7h-8l1-13z" fill="#C5E8F6"/>
<path transform="translate(519,560)" d="m0 0h7l6 4v4l-2 1h-10l-4-3 1-4z" fill="#E7B78F"/>
<path transform="translate(318,659)" d="m0 0h13l5 1-1 4-5-1h-10l-16 3-4-1 2-3z" fill="#929190"/>
<path transform="translate(322,852)" d="m0 0 5 1 20 1-1 2h-22l2 10h2l3 5 2 3-5-1-5-6-1-2z" fill="#F2C68C"/>
<path transform="translate(567,561)" d="m0 0h9l2 1-1 6-5 2h-6l-4-3 1-4z" fill="#E7B78F"/>
<path transform="translate(332,704)" d="m0 0 9 2 10 4-1 4h-7l-9-3-2-4z" fill="#F9DBBF"/>
<path transform="translate(346,716)" d="m0 0h8l4 2v3l-11 3-4 1-3-3-1-4z" fill="#F8DABF"/>
<path transform="translate(363,830)" d="m0 0h5l-1 7-5 5h-5v-4l-3-3 5-4z" fill="#92998C"/>
<path transform="translate(409,744)" d="m0 0h15l-2 13h-2l-5-5z" fill="#C6E7F4"/>
<path transform="translate(487,568)" d="m0 0 3 1-5 12v11l4 10-4-1-4-9v-10l5-13z" fill="#898988"/>
<path transform="translate(208,300)" d="m0 0 6 1 3 5v3h-14l1-6z" fill="#EFF0F1"/>
<path transform="translate(270,786)" d="m0 0h9l-2 8-3 1-1 2-3 2-3-1-1-2 3-5z" fill="#909989"/>
<path transform="translate(476,300)" d="m0 0 7 1 2 5v3h-13l1-7z" fill="#F1F3F3"/>
<path transform="translate(263,821)" d="m0 0 7 1v2h5l-2 5 1 2-3 1-9-3-2-3 1-4z" fill="#B0AEA5"/>
<path transform="translate(198,750)" d="m0 0h3l-1 11-4 21-4 2 5-29z" fill="#8D8D8D"/>
<path transform="translate(388,665)" d="m0 0 2 1 2 7h2l-2 5-3 6-2-2-4-8 1-2h2l1-6z" fill="#FDFDFD"/>
<path transform="translate(230,792)" d="m0 0 7 6 6 5v2l4 2-4 1v2h-3l-3-5-2-4h-2l-5-7z" fill="#B4BBBE"/>
<path transform="translate(471,778)" d="m0 0h1l1 11v15l-1 1h-5z" fill="#C5E7F4"/>
<path transform="translate(510,547)" d="m0 0 1 4-7 10 1 2h-3l1 4-4-1-4-4 5-4z" fill="#E8BA93"/>
<path transform="translate(562,548)" d="m0 0h9l3 1v3h-3l-1 5-2 2-4-1-2-6-2-2z" fill="#898989"/>
<path transform="translate(855,696)" d="m0 0 4 1-3 8-3 3-5 1-2-1 2-4 1-5 6-1z" fill="#919A8B"/>
<path transform="translate(317,837)" d="m0 0 5 1 13 13v1h-7l-9-10z" fill="#BBC0C1"/>
<path transform="translate(523,548)" d="m0 0h9l2 1v2h-3v6l-2 2-4-1-1-1v-6l-4 1 1-3z" fill="#898989"/>
<path transform="translate(544,477)" d="m0 0h11v2l-11 2-6 4-3 7-1 5h-2v-9l4-6 5-4z" fill="#898989"/>
<path transform="translate(357,846)" d="m0 0h5v2l8 1 1 5-1 3-3 1-7-2 1-6-2-1-1 2h-2z" fill="#7B8C72"/>
<path transform="translate(356,723)" d="m0 0 6 1-1 4-6 2h-4v3l-3-1-1-6z" fill="#F9DBC0"/>
<path transform="translate(809,703)" d="m0 0 7 6 10 9v1l-8-1-11-13z" fill="#B6BCBF"/>
<path transform="translate(256,835)" d="m0 0 3 1 5-1 2 4 2-4 2 1v6l-1 1h-6l-2-4-1 4h-3l-2-7z" fill="#848A81"/>
<path transform="translate(603,571)" d="m0 0 2 1 1 10-3 10-4 6-3 1 1-4 4-8 1-3v-12z" fill="#898989"/>
<path transform="translate(320,861)" d="m0 0h2l3 8 5 4 3 1h8l7-2 1-4 1 4 2 1-11 4h-8l-8-4-5-8z" fill="#7F847C"/>
<path transform="translate(348,841)" d="m0 0h5l-2 4-3-1-1 6-1 2h-8l-6-5-1-4 8 6 5-4h2v-2h2z" fill="#F2C987"/>
<path transform="translate(548,502)" d="m0 0 6 1 5 5v3l-6-2-9-1v-3z" fill="#E7B78F"/>
<path transform="translate(344,880)" d="m0 0 4 1 4-1h2v6h2v-6h3v6l-2 2-5-1-2-4-2 5-2-1z" fill="#7E847B"/>
<path transform="translate(814,705)" d="m0 0 5 3 4 4v2l4 2 2 2 4 2-1 1h-12l-1-3h6l-12-11z" fill="#838682"/>
<path transform="translate(843,714)" d="m0 0h2v8l-4 12 1 4 2 2h-5l-3 1 1-3h2l-2-7-1-1 1-7 3 1-2 6 2-1 3-11-1-2z" fill="#67795E"/>
<path transform="translate(229,790)" d="m0 0m-2 1 3 1-1 2 4 5v2h2l5 6v2h-5l-4-3-2-7-3-4z" fill="#888E87"/>
<path transform="translate(322,766)" d="m0 0 2 1-3 7-1 18-2-3-1-11v-9z" fill="#C3DFE9"/>
<path transform="translate(533,584)" d="m0 0 10 3h7l9-2-1 3-4 2-8 1-9-2-4-3z" fill="#898989"/>
<path transform="translate(546,548)" d="m0 0h2l1 3v9l-3 4 1 5 2 4-5-2-2-3v-5l4-5z" fill="#898989"/>
<path transform="translate(230,790)" d="m0 0 5 3 14 14 4 1v2h-10v-2l3-1-3-2v-2l-4-2-10-10z" fill="#68795F"/>
<path transform="translate(465,830)" d="m0 0h6l2 2-1 5-1 1-7-1-1-5z" fill="#B4B3B3"/>
<path transform="translate(413,632)" d="m0 0h2l4 8-3 5-2 3-3-6v-2l-2-1 3-4z" fill="#FDFDFD"/>
<path transform="translate(465,818)" d="m0 0h7l1 1v5l-4 2-5-2-1-3z" fill="#B4B3B3"/>
<path transform="translate(851,746)" d="m0 0h2l2 2 3-2 1 1v7h-3-3-3v-7z" fill="#757F70"/>
<path transform="translate(256,800)" d="m0 0 3 1-2 6-1 1h-7l-5-6 4 2 5-1z" fill="#F3D7A9"/>
<path transform="translate(332,880)" d="m0 0h3l2 2 1-2h3v7h-3-3-3z" fill="#7B8277"/>
<path transform="translate(360,880)" d="m0 0h3v2l5-2 1 6-2 2-4-2-1 2h-2z" fill="#7B8477"/>
<path transform="translate(244,835)" d="m0 0 3 2 4-2 1 1v6h-3l-6 1v-7z" fill="#7A8275"/>
<path transform="translate(851,697)" d="m0 0 3 1-5 2-1 2 2 1-4 5h2v2l-5 1 1-9 4-4z" fill="#697A61"/>
<path transform="translate(527,532)" d="m0 0 9 1 3 3h-14l-6 1 1-3z" fill="#898989"/>
<path transform="translate(495,547)" d="m0 0h4l-1 5-4 6h-2v-8z" fill="#F9DBC0"/>
<path transform="translate(330,846)" d="m0 0 5 2 3 3 8 2v1h-17v-2l5-1z" fill="#707D6A"/>
<path transform="translate(261,802)" d="m0 0 2 1 1 8-3 8-3-2 2-7-1-2h3v-2l-3 1z" fill="#C3C5C4"/>
<path transform="translate(278,804)" d="m0 0 5 2-1 3-2 4-2 2-1-2-5-1 2-1 3-6z" fill="#5F7952"/>
<path transform="translate(807,746)" d="m0 0 4 1 5-1 1 1v5h-3l-1-2-1 4h-3l-2-5z" fill="#7B8277"/>
<path transform="translate(549,557)" d="m0 0 2 3v8l-4 2-2-2 1-5z" fill="#E7B78F"/>
<path transform="translate(279,815)" d="m0 0 1 3-1 5h-2l-2 3v-2h-5v-5l4-1v2z" fill="#D3BB90"/>
<path transform="translate(848,712)" d="m0 0h2l1 2 6 2-5 4v2l-6-1v-5l2 1z" fill="#547344"/>
<path transform="translate(808,701)" d="m0 0 4 1 2 4-5-2v2l4 6h-3l-4-5-1-4z" fill="#768071"/>
<path transform="translate(322,690)" d="m0 0 5 1 4 7-1 2-8-5z" fill="#F8D9BD"/>
<path transform="translate(268,802)" d="m0 0h8l3 2-3 7-1-2-3 1v-5z" fill="#6E8263"/>
<path transform="translate(861,728)" d="m0 0 2 1v5l-3 3h-4l-2 5-5 1-2-2 6-1 3-7 1 2h3z" fill="#6E7C68"/>
<path transform="translate(311,660)" d="m0 0 3 1-2 3-8 2-4-1 2-3z" fill="#919291"/>
<path transform="translate(357,846)" d="m0 0h5v2l8 1-1 5-1-3h-3l-1 2h-2l-1-3-2-1-1 2h-2z" fill="#476A36"/>
<path transform="translate(268,835)" d="m0 0 2 1v6l-1 1h-6l-1-4h3l1-1z" fill="#8C8E8B"/>
<path transform="translate(895,885)" d="m0 0h5v9h-4z" fill="#FDFBFA"/>
<path transform="translate(259,823)" d="m0 0 3 4-4 3-4 2h-11v-2h7l8-3z" fill="#778072"/>
<path transform="translate(842,718)" d="m0 0h1l-1 8-2 4h-2v-5l2-3h-2v-2z" fill="#B6BBBD"/>
<path transform="translate(324,880)" d="m0 0h2l1 5h1l1-5h2v7l-5 1-2-1z" fill="#848783"/>
<path transform="translate(354,836)" d="m0 0h5l-2 5h3v2l-8 1z" fill="#6F7D68"/>
<path transform="translate(317,835)" d="m0 0 5 1 10 9-3 1-8-8-5-1z" fill="#919191"/>
<path transform="translate(325,864)" d="m0 0 1 2h2l3 5 2 3-5-1-5-6 2-1z" fill="#EFC38D"/>
<path transform="translate(265,811)" d="m0 0 1 4 1 7 2 1-7-1 1-7z" fill="#F5D8AB"/>
<path transform="translate(809,703)" d="m0 0 7 6 1 2-4 1-6-8z" fill="#B6BABC"/>
<path transform="translate(540,585)" d="m0 0h13l1 2-4 1h-7l-4-2z" fill="#E7B78F"/>
<path transform="translate(367,858)" d="m0 0 2 1-1 9h-3l-1 2-3-5v-2l5 2z" fill="#B1A28D"/>
<path transform="translate(268,788)" d="m0 0 2 1-1 2 2 1-4 4v3l-3-1 1-7z" fill="#647A58"/>
<path transform="translate(829,746)" d="m0 0h2v8h-2v-2l-3 1-2-2z" fill="#798174"/>
<path transform="translate(851,717)" d="m0 0h3 3l2 6-9-2z" fill="#9EA499"/>
<path transform="translate(316,880)" d="m0 0h7l-2 7-2 1-3-6z" fill="#878985"/>
<path transform="translate(234,802)" d="m0 0 6 5v2h-5l-4-3v-2h3z" fill="#6F7E68"/>
<path transform="translate(322,852)" d="m0 0h2l1 14-3-1z" fill="#F7CA81"/>
<path transform="translate(240,836)" d="m0 0h2v6l-1 1h-5l-1-1v-5h2v4h3z" fill="#737E6D"/>
<path transform="translate(344,880)" d="m0 0 4 1 3-1-2 7h-3z" fill="#7B8278"/>
<path transform="translate(352,856)" d="m0 0 1 3-3 9-4-4v-6l2 1v5h2l1-6z" fill="#687A5F"/>
<path transform="translate(230,792)" d="m0 0 6 5-2 3-5-4-1-3z" fill="#CACECD"/>
<path transform="translate(835,746)" d="m0 0 6 2-2 6h-3l-2-7z" fill="#7B8278"/>
<path transform="translate(540,590)" d="m0 0h14l-2 2-8 1-4-2z" fill="#E7B78F"/>
<path transform="translate(269,804)" d="m0 0 4 1 1 6-7-1z" fill="#7A8C70"/>
<path transform="translate(266,800)" d="m0 0 6 1v3l-3 3-3-1-2-5z" fill="#C7BCAA"/>
</svg>
